{"title":"Resurrection US S01E06 HDTV x264 AAC [GWC].mp4","uid":9957692,"size":124289031,"categoryP":"video","categoryS":"tv_shows","magnet":"?xt=urn:btih:75188e2d41af1c9ea595de2ddddb424b89a4664b&amp;dn=Resurrection+US+S01E06+HDTV+x264+AAC+%5BGWC%5D.mp4&amp;tr=udp%3A%2F%2Ftracker.openbittorrent.com%3A80&amp;tr=udp%3A%2F%2Fopen.demonii.com%3A1337&amp;tr=udp%3A%2F%2Ftracker.coppersurfer.tk%3A6969&amp;tr=udp%3A%2F%2Fexodus.desync.com%3A6969","seeders":1,"leechers":0,"uploader":"canc232","files":1,"time":1397471620,"description":"Resurrection US S01E06 HDTV x264 AAC [GWC] \n\n\nSTORYLINE : \nThe lives of the people of Arcadia are forever changed when their deceased loved ones return.\n\n\nSCREENS : &lt;a href=&quot;\nhttp://i.imgur.com/LKYbiYE.jpg&quot; rel=&quot;nofollow&quot; target=&quot;_NEW&quot;&gt;\nhttp://i.imgur.com/LKYbiYE.jpg&lt;/a&gt; &lt;a href=&quot;\nhttp://i.imgur.com/50xaU2p.jpg&quot; rel=&quot;nofollow&quot; target=&quot;_NEW&quot;&gt;\nhttp://i.imgur.com/50xaU2p.jpg&lt;/a&gt; &lt;a href=&quot;\nhttp://i.imgur.com/0Zpoixo.jpg&quot; rel=&quot;nofollow&quot; target=&quot;_NEW&quot;&gt;\nhttp://i.imgur.com/0Zpoixo.jpg&lt;/a&gt;\n\n\nMEDIA INFO :\nGeneral \nFormat : MPEG-4 \nFormat profile : Base Media \nFile size : 119 MiB \nDuration : 43mn 26s \nOverall bit rate mode : Variable \nOverall bit rate : 381 Kbps \n\nVideo \nFormat : AVC \nFormat profile : &lt;a class=&quot;__cf_email__&quot; href=&quot;/cdn-cgi/l/email-protection&quot; data-cfemail=&quot;b5fddcd2ddf5f9869b85&quot;&gt;[email&amp;#160;protected]&lt;/a&gt;&lt;script cf-hash='f9e31' type=&quot;text/javascript&quot;&gt;\n/* &lt;![CDATA[ */!function(){try{var t=&quot;currentScript&quot;in document?document.currentScript:function(){for(var t=document.getElementsByTagName(&quot;script&quot;),e=t.length;e--;)if(t[e].getAttribute(&quot;cf-hash&quot;))return t[e]}();if(t&amp;&amp;t.previousSibling){var e,r,n,i,c=t.previousSibling,a=c.getAttribute(&quot;data-cfemail&quot;);if(a){for(e=&quot;&quot;,r=parseInt(a.substr(0,2),16),n=2;a.length-n;n+=2)i=parseInt(a.substr(n,2),16)^r,e+=String.fromCharCode(i);e=document.createTextNode(e),c.parentNode.replaceChild(e,c)}}}catch(u){}}();/* ]]&gt; */&lt;/script&gt; \nFormat settings, CABAC : Yes \nFormat settings, ReFrames : 4 frames \nDuration : 43mn 26s \nBit rate : 318 Kbps \nMaximum bit rate : 1 887 Kbps \nWidth : 720 pixels \nHeight : 404 pixels \nDisplay aspect ratio : 16:9 \nFrame rate : 23.976 fps \nStream size : 98.9 MiB (83%) \nTitle : Resurrection US S01E06 HDTV x264 AAC [GWC] \nWriting library : x264 core \n\nAudio \nFormat : AAC \nFormat profile : HE-AAC / LC \nDuration : 43mn 26s \nBit rate mode : Variable \nChannel(s) : 2 channels \nSampling rate : 48.0 KHz / 24.0 KHz \nStream size : 18.6 MiB (16%) \nLanguage : English \n\n","torrent":{"xt":"urn:btih:75188e2d41af1c9ea595de2ddddb424b89a4664b","amp;dn":"Resurrection+US+S01E06+HDTV+x264+AAC+%5BGWC%5D.mp4","amp;tr":["udp%3A%2F%2Ftracker.openbittorrent.com%3A80","udp%3A%2F%2Fopen.demonii.com%3A1337","udp%3A%2F%2Ftracker.coppersurfer.tk%3A6969","udp%3A%2F%2Fexodus.desync.com%3A6969"],"infoHash":"75188e2d41af1c9ea595de2ddddb424b89a4664b","infoHashBuffer":{"type":"Buffer","data":[117,24,142,45,65,175,28,158,165,149,222,45,221,219,66,75,137,164,102,75]},"announce":[],"urlList":[]}}